<svg viewBox="0 0 537 498" width="537" height="498" fill="none" xmlns="http://www.w3.org/2000/svg"><g filter="url(#filter0_d)"><path d="M81.25 371.17c-.2-8.77 6.6-19.26 13.58-22.75 7.249-3.62 11.759-5.13 11.749-5.25-1.58-14.88 2.92-34.68 10.25-46.63 20.08-32.75 53.45-45.86 53.37-46.25-.75-3.75-3-19.25 16.88-24.37 1.94-.5-16.88-17.5-3.17-41.42.13-.23-2.33-27.71 17.54-37.83.22-.11-4.37-12.25 0-37.75 6.38 2.88 18.75 26 18.75 26s8.13-17.75 19.71-22.42c16.28-6.56 24.46-5.87 24.67-6.46 2.07-5.79 6.25-25.92 8.25-25.25 2 .67 3.82 27 4 27 8.88 1.13 22.07 5.51 27.13 9.75 5.38 4.5 11.25 10.33 11.29 10.29 6.46-5.42 16.41-13 17-11.29 2.88 9.25-4.21 24.74-7.62 29.29-.25.33 4.87 10.72 2.25 18.58-.12.38 11.63 2.25 16.13 0-8.25 9.25-16.88 9.5-16.88 10.75 0 3.32-1.5 18.75-5.5 24.67-.3.45-.75 8.71-1.5 15.46 0 .28 7-5.12 15.5 1.75 10.87 8.79 2.56 19.43 3.38 19.63 13.13 3.13 60.22 24.15 72 50.75 15.5 35 11.61 55.51 11.88 55.88 4.63 6.5 6.51 22.62 6.75 22.54 8.63-2.79 23.75 4.33 25.5 15.33 1.37 8.58 1.25 19-11.75 26-8.84 4.76-14 8.38-41 2.25-3.25-.74 2.5.5-28.5 6-7.25 1.29-40.25-.92-49.58-3.58-9.33-2.66-10-1.54-10.54-1.42-8.51 2.13-24.79 6.08-33.46 5.42-8.67-.66-19.5-3-24.17-9-4.67-6-8.75-16.87-8.75-14.87 0 2-10.54 7.46-13.75 8.58-15.87 5.54-32.83 4.88-40.37 3.92-12.75-1.62-18.69-3.38-19.63-3-10.75 4.38-33.86 5-44.5 4.25-49.94-3.55-46.69-25.3-46.89-34.55zm110.449-41.63c-1.47 1.22 1.25-.62 6.75 1.5 2.82 1.09 4.38 3.75 4.63 3.13.25-.62-1.17-10.25-1-12 .5-5.17-9.63 6.75-10.38 7.37zm40.38-16.25c-1.44 2.16-4.75 14-2.25 18s10.75 12.13 23.38 6.75c4.38-1.86-1.37 5.63-3.75 7.63s-6 4.63-5.75 5.25c.25.62 5.25 2.88 7.13 7.63s1.88 6.5 3 5.63c1.12-.87 19.84-22.33 51-6.75.25.13 1.5-1.87 3.5-6.62 1.25-3 5.88-6.37 5.75-7.12-.13-.75 0-4.37-5.5-13.13-10.37-16.37-32.87-21.37-46-21-13.13.37-30.26 3.36-30.51 3.73z" fill="#fff"/><path d="M113.579 336.29c-.67-3.67 0-40.13 40.71-74.13 15.82-13.22 20.54-11.87 20.54-11.87l14.38 8.38a132.418 132.418 0 0 0-38.21 24.33c-8.33 8-13.94 19.35-18.67 28.79-1.17 2.33-1.17 6.5-2.83 8.17-1.66 1.67-7.83 3.67-7.83 3.67l-8.17 12.13.08.53zM291.699 247c1 0 5.88.38 7.88.63s4.88 1.13 5 .63c.12-.5 2.38-12.37 1.75-13.12-.63-.75-3 1.13-5.25 2.13s-5.75 1.63-6.62 2.88c-.87 1.25-2.76 6.85-2.76 6.85zM331.829 252.79c1.63.38 41.63 15.88 56.79 43.88 10.41 19.22 10.21 25.88 15.67 29.5 15.25 10.13 17.5.13 17.5-2s.17-15.83-11.46-36.75c-11.77-21.18-32.37-33.87-44.75-39.62a250.872 250.872 0 0 0-26.87-10.62c-.5 0-6.88 15.63-6.88 15.63" fill="#EDB9C3"/><path d="M134.789 316.67c-.35-3.16 6.83-25.5 18.5-35.83 11.67-10.33 27.79-19.79 35.54-21.92 1-.28 13.42 5 16.77 8.28 3.35 3.28 8.93 5.26 6.23 5.59-2.7.33-8.9 3.15-16.5 6.63-8.75 4-19.71 11.08-32.21 22.25-2.81 2.51-7.67 11-10.83 15.5-1.44 2.04-17.29 1-17.5-.5zM250.619 254.17c.33 3 1.83 9.41 2.75 10.21.92.8 9.25.13 10.25-.21 1-.34 33.89 1.13 35.11.57 1.22-.56 5.39-15.4 5.47-15.82.08-.42-4.58-1.08-6.58-1.08s-4.17-1.92-5.92-.79-9.42 8.12-15.42 9.46c-6 1.34-20-1-22.67-1.67a23.983 23.983 0 0 0-3-.67h.01zM320.199 268.79c1.5-1.75 7.13-10.5 8.63-13.12 1.5-2.62.33-3.26 3-2.62 20.63 4.88 42.13 24.75 50.13 36.13a81.668 81.668 0 0 1 11.75 25.63c.75 3-3.15 8.39-10.12 7.75-13.59-1.27-20.14-10.89-22.59-15.23-6.24-10.82-14.38-17.93-17.87-21.79-7.13-7.87-22.75-15.62-22.75-15.62l-.18-1.13z" fill="#40B3F0"/><path d="M171.579 293.67c7.5-6 35.63-20.5 40.25-20.87 4.62-.37 6.5-.62 6.75.75s-4.62 12.5-5.87 15-1.25 5.5-2.75 5.75-12.37 3.63-28.12 18c-3.21 2.92-8.88 13-12 14.54-2.3 1.09-6.83-3.33-9.67-6.17-.74-.74-7.75-.79-7.17-3.5 1.39-6.67 13.25-19.24 18.58-23.5zM255.579 285.42c2-.25 12.38-1.87 31.25 2.38 18.87 4.25 30.83 11.5 38 18.88 8.39 8.68 9 11.27 11.17 14.33 3 4.33 11.7 10.83 19.5 8.42 6.88-2.12 6.9-11.73 6.5-13.87-1.25-6.62-10.62-23.5-22.37-32.87-11.75-9.37-17.38-12-18.13-12.12a3.55 3.55 0 0 0-2.37 1.13c-.5.5-7 5-11 4.63-4-.37-7.25-2.37-8.12-4.12-.87-1.75-1-4.62-1.12-5.75-.12-1.13-2.5-1.5-5.25-2s-34.37-.62-38.12.38-.62 1.88-.75 5.13.81 15.45.81 15.45z" fill="#B1D6B6"/><path d="M174.449 333.5c-1.23.66-4.42-3.64-4.33-5.5.16-3.54 9-12 11.5-14.83 3.83-4.33 17.24-14.83 20.67-16.33 4.17-1.83 9.67-4.17 8.83-2.83-.84 1.34-6.83 11.33-7.67 14.83-.84 3.5-1.83 9.17-2 10.33a5.759 5.759 0 0 1-3.17 3.67c-1.59.87-2.42 5-7 5.83-14.28 2.66-14.66 3.66-16.83 4.83zM233.999 311.83c.83 0 16.67-2.67 24.33-2.33 7.66.34 36.71 4.18 45.5 10.33 8.33 5.83 18.17 13.67 23.33 13.17 3.62-.35 10-3 6.5-10.67-1-2.17-2.17-5.5-7.67-12.5s-21.5-19-39.83-22-28.67-3-29.83-2.67c-1.16.33-1.67 1.67-2.17 3.17s-.83 6.83-4.17 10.5-5 6.67-9 8-5.83.17-6.5 1.67a7.716 7.716 0 0 0-.49 3.33z" fill="#FDF63B"/><path d="M215.119 268.33c-1.25-.36 3.33 2.83 7.33 3 4 .17 6.5-1.83 6.83-2.67.48-1.34.539-2.795.17-4.17-.5-1.17-.5-2.5-1.17-2.5-.67 0-2.33 2-3.33 2.83-1 .83-8.66 3.85-9.83 3.51zM302.619 273.33c-.9-1.24.33-2.67.67-3.33.34-.66 0-.67 2.33 0s5 1.33 7.17.67 7.17-2.5 7.17-2.5a18.74 18.74 0 0 1-2.17 3.33 16.315 16.315 0 0 1-8.5 4.33c-3.29.34-5.29-.66-6.67-2.5zM206.119 124.33c5.88 3.34 14 26.17 12.88 31.17-14.88-.67-16.21-28.17-12.88-31.17zM325.619 127.17c-6.63 1.11-19.33 15.83-17.17 25 10.84 3.33 18.41-22.59 17.17-25zM264.289 162c-2.15-.86-3-9.17-.83-9.33 2.17-.16 5.67-.67 6.17-2.67s-3.63 1-5.63-.67-1.17-4.5-1-7.67c.12-2.33 1.11-4.2 4.17-5 3.83-1 4.17-3.67 6.83-6.5 3.11-3.3 4.33-5.67 4.5-4 .564 2.908.788 5.871.67 8.83-.33 3.83-.17 5.5-.5 6.83-.33 1.33 1.33.67 1.33 2.5s1.17 8.33.83 10.33c-.34 2-4.5 8.33-8.67 8.5a19.457 19.457 0 0 1-7.87-1.15z" fill="#EDB9C3"/><path d="M187.449 191.83c-5.33 5.33-2.4 18.09-1 23.17 1.33 4.83 5.17 10.67 6.83 12 1.66 1.33 15.5 4.67 21.83 13.5 6.33 8.83 10 15 14.5 20.33 4.5 5.33 14.17 12.5 13.17 23.83-1 11.33-4 19.17-12.33 19.33-8.33.16-12.07-3.36-8.67-.5 3.17 2.67 14.85 7.33 24-.33 6.17-5.17 12-17 9.33-31.83-2.67-14.83-4.83-18.17-6.5-19.67-3.1-2.79-6.67-7.5-7-9-.33-1.5-2.5-2.33-6-3-3.5-.67-13.17-5-17.5-9.17s-9-12.67-9.33-13.67c-.33-1-2.83-2-4.5-4s-9.83-7.83-11.83-11.67-5-9.32-5-9.32z" fill="#EDB9C3"/><path d="M204.289 212.83c-8.5-7-18.76-30.52-12.67-46.17 5-12.83 12-16.33 12.5-16.17.5.16 9.83 9.83 10.67 10.17.84.34.83 1.83-.17 3.33s-2.5 9.5-3.67 9.67c-1.17.17-4.33-2-5.67-3.83-1.34-1.83-3.33-3.33-3.83-3-.5.33-1.5 9.83 1.5 13.33s4.33 3.67 4.17 5.33c-.16 1.66-1.67 21.5.67 26.67 2.34 5.17.83 3.17-.5 2.5a29.441 29.441 0 0 1-3-1.83zM222.999 274.5c.48 2.87-1.67 12-4.83 19.33-3.16 7.33-10.17 21.34-10.38 28.34a42.6 42.6 0 0 0 4.5 19c2.33 4.5 4.83 7.33 7.83 9s9.67 4.17 15 2.83c5.33-1.34 11-3 12.83-4.67s8-10.5 7.5-10.67c-.5-.17-3.83 1.5-5.5 1.67-1.67.17-6.17 1.5-11.17-1s-8-5.33-9.33-8.33-.33-6.67.83-9.83 4.17-10.5 3.67-10.83c-.5-.33-1.5.17-4-.83s-8.5-3.83-9.17-5.5c-.67-1.67-.67-2 1.67-2s6.67 1.5 9.5-1.5 4.17-7.17 4.17-12.67-.33-10.17-1.33-12-3-5.83-3.5-6.33-2.17.33-3.17.83c-1 .5-4.83 2.5-4.83 2.5a7.81 7.81 0 0 0-.29 2.66zM265.829 133.54c-1-1-.62-8.5-.37-10.37.25-1.87 2.75-2.12 4-2.62a6.502 6.502 0 0 0 2.63-3.12 13.262 13.262 0 0 1 2.63-3.62c.75-.5 2.25-2.37 2.5-1.5.25.87 1.13 7.75 1.13 8.88 0 1.13.75 3.13 0 4.13a24.123 24.123 0 0 1-4.35 4.85c-1.87 1.38-5.5 3.88-6.5 4a1.798 1.798 0 0 1-1.67-.63z" fill="#40B3F0"/><path d="M267.579 117.92c-.5-.75.63-12.87 1.63-13.37 1-.5 2.38-.5 3.38-1.87.77-1.06.25-2.37 1.38-3.12s2.25-2.5 2.38-1.5c.13 1 1.25 9.75.88 11.13a16.984 16.984 0 0 1-3.53 5.81c-1.37 1.25-4.37 3.63-5.37 3.63s-.75-.71-.75-.71zM209.999 184.67c-1.62-3.25-3.12-7.37-1.87-7.5 1.25-.13 9.68 1.53 13.25-2.25 4.38-4.62 4.75-8.87 4.25-14.25-.5-5.38-4-18-4-20.37 0-2.37-2.75-4.87.13-5.12s8.13-3.37 13.75-.25c5.62 3.12 18.57 12.07 16.82 24.24-1.75 12.17-4.12 21.75-17 27.5-12.88 5.75-18 2.5-20.62 1.5a13.79 13.79 0 0 1-4.71-3.5z" fill="#B1D6B6"/><path d="M234.789 133.5c1-1.33 6.84-4.3 11.17-6 4.67-1.83 13-4.17 13.83-3.5.83.67-.17 3.83 0 5.67.17 1.84.83 2.83.5 4-.33 1.17-1.5 2.17-1.5 3.83 0 1.66.33 3.83-.33 3.83s-3.33.5-6.67.5-3.33 1.5-5.33.17-3.67-2.83-5.67-4.33-6-2.67-6.5-3c-.5-.33.5-1.17.5-1.17zM278.999 127.67c1.33 0 10.33 4 13.5 6.5s18.79 20.83 21.62 25.16c2.83 4.33 8.5 5.83 13.17 5.83s15.5-.17 14.5 1-12.17 6.33-16 7.33-7.71 2.8-18 1.33c-9.33-1.33-18.17-6-20.17-9.5s-6.17-6.67-7-8.83c-.83-2.16.17-5 .17-6a70.098 70.098 0 0 0-1.33-7.83c-.33-1.17-1.17-3.17-.67-5.33.5-2.16.21-9.66.21-9.66z" fill="#FDF63B"/><path d="M267.649 259a43.422 43.422 0 0 1-11.65-1.78c-16.22-4.55-17.08-21.34-18.59-22.1-1.51-.76-4.29-1.14-1.82-2.95a6.701 6.701 0 0 1 2.76-1.34 1.74 1.74 0 0 1 2.06 1.49c-.74 11.23 7.77 19.17 16.52 22.05 10.3 3.39 22.67 1.54 30.08-4.49 4.18-3.41 6.32-9.65 7.07-14 .14-.82.53-2.25 1.31-2.25s.83 1.61.75 2.44c-.56 5.56-2.61 12.33-7.24 16.1-5.45 4.47-13.3 6.83-21.25 6.83z" fill="#000"/><path d="M254.529 241c-2.61.11-4-8.67-1.17-8.94 2.83-.27 5.09 8.82 1.17 8.94zM280.749 241.62c-2.62-.21-1.58-9.42 1.57-9.29 2.88.12 1.05 9.5-1.57 9.29zM287.329 213.42a1.5 1.5 0 0 1-1.46-1.54c.09-3.73 5.86-7.2 11.14-8.27 6.75-1.38 12.25 1 14.72 6.44a1.495 1.495 0 0 1-.74 2 1.4 1.4 0 0 1-2-.74c-1.09-5.37-7.1-5.94-10.26-5.37a15.584 15.584 0 0 0-9.88 6c-.46.7-.71 1.48-1.52 1.48zM247.829 215.17c-1-.19-1.21-.87-1.54-1.58a15.485 15.485 0 0 0-11.67-8.5c-4.44-.62-9.59.38-11.23 4.77-.29.78-.56 1.56-1.71 1.34a1.419 1.419 0 0 1-.88-1.93c1.89-5.06 7.5-7.59 14.63-6.59 6.54.91 13.42 4.94 13.89 10.87a1.502 1.502 0 0 1-1.38 1.61l-.11.01z" fill="#000"/><path d="M222.879 208.6h-.23a11.422 11.422 0 0 1-7-2.55 1.499 1.499 0 0 1-.417-1.615 1.507 1.507 0 0 1 .765-.857 1.498 1.498 0 0 1 1.652.232c1.31 1.16 3.41 3 5.66 1.91.75-.35.84.57.83 1.4a1.502 1.502 0 0 1-1.26 1.48zM226.199 205.6c-2.05 0-3.59-1.37-4.72-2.55-1-1-2.09-2.55-1.89-4.07a1.513 1.513 0 0 1 2.692-.745c.247.316.358.717.308 1.115a4.778 4.778 0 0 0 1.51 2.64 5.559 5.559 0 0 0 3.31 1.44 1.066 1.066 0 0 1 .936.237 1.066 1.066 0 0 1 .364.893c.06.82-.54.74-1.37.8-.09 0-1.05.24-1.14.24zM231.519 204.67a2.384 2.384 0 0 1-1.12-.37c-2.26-1.66-3.93-4.85-3.13-7.77a1.506 1.506 0 0 1 1.821-.978 1.501 1.501 0 0 1 1.069 1.768c-.43 1.57-.34 4.63 1.87 5.54.76.32 1.37 1 .88 1.63-.31.39-.91.18-1.39.18zM237.999 204.85c-.16 0-.58-.3-.69-.19-.6.6-1.6.36-2-.68-.82-2-.89-5.89-.13-7.37a1.502 1.502 0 0 1 1.983-.591 1.502 1.502 0 0 1 .687 1.951c-.41.93-1.28 4.7-.34 5.45.71.31 1.8.86 1.55 1.61-.25.75-.48-.18-1.06-.18zM242.689 207.37c.6-.2.07-.27-.51-.43-.8-.22-1.64-.33-1.46-1.25a10.238 10.238 0 0 1 2.55-5.62 1.383 1.383 0 0 1 2.12.06 1.858 1.858 0 0 1-.13 2.4 6.066 6.066 0 0 0-2.19 3.47c-.16.88.4 1.49-.38 1.37zM290.449 208.92a1.487 1.487 0 0 1-.83-.25c-.69-.46.2-1.14.66-1.83 1.25-1.87 0-3.07-.76-4a1.5 1.5 0 0 1 2.35-1.86c2.53 3.2.49 6.26-.18 7.26a1.504 1.504 0 0 1-1.24.68zM296.249 205.12c-.22 0-.73-.11-.92.42-.28.78-.12-.42.25-1.17a4.995 4.995 0 0 0-.15-4.94 1.517 1.517 0 0 1-.096-1.175 1.499 1.499 0 0 1 1.96-.925 1.487 1.487 0 0 1 .846.82c1.42 3 .18 5.52-.73 7.37-.26.53-.6-.4-1.16-.4zM300.999 205c-.47 0-.79.16-1.08-.25-.48-.67.16-1.1.83-1.58a4.482 4.482 0 0 0 1.69-4.41 1.503 1.503 0 0 1 2.158-1.744c.35.191.61.512.722.894.82 2.78-1 5.38-3.31 7-.28.24-.71.09-1.01.09zM305.359 206c-.78 0-.43-.32-.43-1.11s.3-.28 1.11-.43a3.742 3.742 0 0 0 3-4 1.512 1.512 0 0 1 .38-1.086 1.493 1.493 0 0 1 1.616-.417 1.507 1.507 0 0 1 .858.765c.085.178.135.371.146.568a5.888 5.888 0 0 1-1.78 4.22 5.38 5.38 0 0 1-4.27 1.84s-.59-.35-.63-.35zM309.099 209.68c-.08 0 .09-.83 0-.84-.82-.11-1.15.37-1-.45.15-.82-.21-1.7.59-1.61.06 0 .77.84.83.85a4.9 4.9 0 0 0 4.87-3.11 1.508 1.508 0 0 1 .781-.853 1.5 1.5 0 0 1 2 .747 1.498 1.498 0 0 1 .029 1.156c-1.32 3.43-4.69 4.43-8.1 4.11zM223.199 190.47c-8.21 0-16.41-3.36-20-8.16-1.8-2.44-5.52-11.3-3.55-17.31.18-.54.7-1.61 1.26-1.7.56-.09 1.05.83 1.38 1.29 4.34 6 9.06 9.51 13.34 7.48 3.54-1.67 6.06-5.3 6.89-9.94.53-3-1.93-16.51-3.71-24.89a1.472 1.472 0 0 1 0-.23 3.527 3.527 0 0 1 1-2.68c1.23-1.3 3.57-2 6.94-2a26.307 26.307 0 0 1 9.12 1.54c8.52 3.95 14.31 10 16.76 17.62a28.38 28.38 0 0 1-2.36 22.26c-8.19 14.55-20.47 16.72-27.07 16.72zm-20.06-18.74a16.63 16.63 0 0 0 3 9.38c2.54 3.45 8.9 6.36 17.06 6.36 5.94 0 17-2 24.44-15.16a25.338 25.338 0 0 0 2.12-19.86c-2.18-6.76-7.42-12.24-15.16-15.82a23.597 23.597 0 0 0-7.86-1.26c-2.8 0-4.3.53-4.76 1a.526.526 0 0 0-.16.36c.59 2.77 4.5 21.5 3.7 25.9-1 5.61-3.46 10-7.89 12.09a10.486 10.486 0 0 1-4.5 1.05c-3.39.02-6.79-.52-9.99-4.04z" fill="#000"/><path d="M214.869 162.25c-10-7-19.35-18.71-15.54-42.08.36-2.18.74-8.72 1-11.57 0-.5 0-1.38.45-1.62.45-.24 1.28.19 1.72.41 7.31 3.72 19.12 25.45 19.71 31a1.504 1.504 0 0 1-1.345 1.655 1.507 1.507 0 0 1-1.655-1.345c-.43-4.13-9-18.94-15.26-24.34a66.142 66.142 0 0 1-1.25 7c-3.906 17.333.967 30.55 14.62 39.65.69.46 1.67.89 1.21 1.58-.28.41-2.41.53-3.66-.34zM313.329 159.29a1.5 1.5 0 0 1-1.25-.67c-.46-.69.25-1.17.91-1.66a42.778 42.778 0 0 0 17.17-37c-6.1 3.05-23.42 13-24.71 26.13-.08.83 0 1.64-.86 1.58a1.5 1.5 0 0 1-1.39-1.6c1.18-16.77 25.61-30.41 28.94-31.6.42-.15 1.09-.48 1.47-.26.38.22.44 1 .51 1.42 1.26 7.34-.46 30.41-20 43.42a1.486 1.486 0 0 1-.79.24zM240.079 242.29c-.099.01-.2.01-.3 0a46.516 46.516 0 0 1-28.28-17.85 33.803 33.803 0 0 1-6.28-15.13c-1.15-7-.95-14.51.63-23.75a1.52 1.52 0 0 1 1.75-1.25 1.522 1.522 0 0 1 1.25 1.75c-1.52 8.9-1.71 16.13-.62 22.75a30.413 30.413 0 0 0 5.71 13.81 43.562 43.562 0 0 0 26.48 16.72 1.504 1.504 0 0 1 1.355 1.645 1.505 1.505 0 0 1-1.645 1.355l-.05-.05z" fill="#000"/><path d="M210.889 175.06a1.514 1.514 0 0 1-.688-.169 1.506 1.506 0 0 1-.722-1.831c.38-1.08 3.78-10.6 5.17-12a1.499 1.499 0 0 1 2.13 2.11 75.5 75.5 0 0 0-4.48 10.86 1.495 1.495 0 0 1-1.41 1.03zM294.159 241.87c-.56 0-.06-.65-.32-1.2a1.51 1.51 0 0 1 .248-1.652 1.51 1.51 0 0 1 .472-.348c28.34-13.23 25.87-32.49 18.44-62.67a1.509 1.509 0 0 1 .142-1.166 1.488 1.488 0 0 1 .939-.706 1.493 1.493 0 0 1 1.16.187 1.486 1.486 0 0 1 .669.965c6.45 26.15 12.38 51.19-21 66.48a2.24 2.24 0 0 1-.75.11zM208.329 217.67c-.275 0-.545-.076-.78-.22a52.686 52.686 0 0 1-22.27-28.32c-2.68-8.39-2.87-21.71 3-31.13 2.08-3.31 8.44-10.69 13.73-12.73a1.501 1.501 0 0 1 1.08 2.8c-4.36 1.68-10.31 8.39-12.27 11.52-4.63 7.38-5.74 19.15-2.72 28.62 5.09 15.94 17.35 24.45 21 26.68a1.499 1.499 0 0 1 .119 2.479 1.497 1.497 0 0 1-.909.301h.02zM218.819 274.56c-4 0-7.75-1.35-9.36-2.77a47.957 47.957 0 0 0-8.62-6.07 133.576 133.576 0 0 0-17.84-8.41c-9.12-3.56-9.12-9.61-9.12-11.56 0-.83.25-2.12 1.08-2.12.83 0 .83 1 .83 1.79 0 1.47.95 6.24 8.3 9.1a136.57 136.57 0 0 1 18.19 8.59 51.46 51.46 0 0 1 9.13 6.43c1.44 1.27 6.77 2.92 11.41 1.41 2.14-.69 5.44-2.5 5.85-4.22-.18-3.39-9-31.81-38.3-38.26-6.46-1.42-14.49.72-17.64 11-.63 2-.8 7.92-.32 11.22a1.511 1.511 0 0 1-1.29 1.71 1.505 1.505 0 0 1-1.122-.291 1.518 1.518 0 0 1-.588-.999c-.49-3.42-.39-9.87.43-12.53 3.76-12.25 13.74-14.68 21.16-13.05 32.78 7.22 41 39.58 40.63 41.64-.78 4.27-7.6 6.53-7.89 6.62-1.59.51-3.25.769-4.92.77z" fill="#000"/><path d="M212.409 269.06a27.907 27.907 0 0 1-6-.67 1 1 0 0 1-.76-1.19 1 1 0 0 1 1.19-.76c11.66 3.06 19.36-2.59 20.2-5.43a1.01 1.01 0 0 1 .483-.595 1.008 1.008 0 0 1 .762-.08 1.009 1.009 0 0 1 .711.856.984.984 0 0 1-.036.389c-.96 3.13-7.67 7.48-16.55 7.48zM187.829 227.29a1.514 1.514 0 0 1-.621-.137 1.52 1.52 0 0 1-.509-.383c-7.7-8.77-13.7-29.02-2.46-44.37a1.502 1.502 0 1 1 2.42 1.78c-11.29 15.39-3.15 34.34 2.3 40.63a1.497 1.497 0 0 1-.321 2.24 1.498 1.498 0 0 1-.809.24zM232.739 310a17.16 17.16 0 0 1-6.88-1.38c-2.85-1.25-7.69-4.6-8.65-8.08-.15-.54-.33-1.66.08-2 .41-.34 1.35 0 1.88.23a17.14 17.14 0 0 0 7.5.92c7.46-1.46 8-11.2 8-14.16 0-5.92-1.94-12.24-4.93-16.08a1.499 1.499 0 0 1 .26-2.1c.65-.51 1-1.48 1.59-.86 4.67 5.21 6.08 13.83 6.08 19 0 3.53-.08 15.26-9.79 17.16a17.6 17.6 0 0 1-4.46.3 13.564 13.564 0 0 0 4.27 3c4.76 2.09 10.34 1.2 15.25-2.17 7.94-5.45 11.82-18.78 11-28.51-.45-5.22-2-17.91-6.94-22.82a1.497 1.497 0 0 1 .037-2.083 1.496 1.496 0 0 1 2.083-.037c5.41 5.41 7.21 17.79 7.81 24.68.9 10.44-3.09 24.94-12.27 31.24a21.344 21.344 0 0 1-11.92 3.75z" fill="#000"/><path d="M232.349 354.79c-5.44 0-11.26-1.74-17.38-5.2-14.91-8.43-17.53-30.17-10.62-45.18 1.46-3.16 3.12-6.57 4.73-9.86 4.1-8.38 8.34-17.05 8.76-21a1.512 1.512 0 0 1 1.66-1.34 1.507 1.507 0 0 1 1.34 1.66c-.48 4.51-4.64 13-9.05 22-1.6 3.28-3.26 6.67-4.7 9.8-6.35 13.8-4.1 33.7 9.38 41.32 8.83 5 16.85 6.1 23.83 3.29 5.7-2.29 8.53-6 10.68-9.86-6.48 2.44-11.91.68-17.73-3.4-12.27-8.59-.67-27.71-.17-28.52a1.503 1.503 0 0 1 2.057-.471 1.5 1.5 0 0 1 .493 2.051c-.11.17-10.62 17.51-.67 24.48 7.6 5.32 15.81 2.54 20.46-.14.53-.31 1.82-1 2.31-.59.49.41.06 1.73-.12 2.32-1.19 4-7 13.2-16.2 16.91a23.987 23.987 0 0 1-9.06 1.73zM307.159 277.74a9.621 9.621 0 0 1-4.09-.84c-2.67-1.26-6.52-6.37-4.66-12.07 2.12-6.51 8.57-26.32 6.43-29.89a1.502 1.502 0 0 1 .554-1.991 1.497 1.497 0 0 1 2.016.451c1.75 2.92 1.34 9.36-6.15 32.36a7.65 7.65 0 0 0 3.09 8.43c2.92 1.38 9.33.43 14.44-6 5.86-7.32 18.16-28 19.81-39.77a10.992 10.992 0 0 0-4.34-10.34c-4-3-9.39-3.57-14.55-1.4a1.5 1.5 0 0 1-1.969-1.954c.151-.369.442-.662.809-.816 6.16-2.59 12.72-1.92 17.54 1.79a13.993 13.993 0 0 1 5.48 13.14c-1.87 13.35-15.38 34.9-20.44 41.23-4.27 5.36-9.66 7.67-13.97 7.67z" fill="#000"/><path d="M309.429 271.85a8.61 8.61 0 0 1-4.42-1.13c-4-2.34-5-7.73-4.68-10.78a1.013 1.013 0 0 1 .368-.676.99.99 0 0 1 .737-.219 1.006 1.006 0 0 1 .895 1.105c-.26 2.44.58 7.54 3.76 9.4 3.52 2 11-.5 16.5-6 .39-.39 1.12.34 1.44.79a1 1 0 0 1-.23 1.39c-5.72 4.07-10.52 6.12-14.37 6.12zM258.199 143.92c-.119.014-.24.014-.36 0-4.3-1.05-8-1.29-10.22-.64a1.5 1.5 0 0 1-1.86-1c-.23-.79-1.05-1.48-.27-1.76 3.13-1.08 8.13-.71 13.07.5.8.2.38.86.18 1.67-.2.81.14 1.23-.54 1.23zM312.099 177.1a39.176 39.176 0 0 1-3.92-.19c-14.5-1.47-20.26-9-25.82-16.35-1-1.35-2.09-2.75-3.18-4.05-.53-.64.4-.83.86-1.92.32-.76.92-.64 1.44 0 1.13 1.36 2.21 2.78 3.26 4.16 5.42 7.12 10.53 13.85 23.74 15.19 10.31 1 20.77-2.39 27.47-6.55-6.46.49-11.58-1.5-14.56-2.4-8-2.4-11.4-7.51-15.4-13.43-5-7.33-10.57-15.64-26.64-22.63l-1.65-.69a1.49 1.49 0 0 1-.867-.797 1.488 1.488 0 0 1-.025-1.178 1.5 1.5 0 0 1 2.012-.805l1.73.72c16.87 7.33 23 16.41 27.93 23.7 3.83 5.67 6.85 10.15 13.78 12.24 7.58 2.29 17.09 2 22.08.24.63-.22 1.94-.56 2.32 0 .38.56-.25 1.85-.67 2.37-4.75 5.86-20.99 12.37-33.89 12.37zM228.329 134.29a1.5 1.5 0 0 1-1.23-.65c-.47-.68-1.45-.51-.77-1 .09-.06 0-.07.17-.25a45.762 45.762 0 0 1 34.33-11.25c.83.07.65.88.59 1.7-.06.82 0 1.37-.83 1.29a42.673 42.673 0 0 0-30.77 9.37c-.29.24-.5.4-.63.49a1.493 1.493 0 0 1-.86.3z" fill="#000"/><path d="M320.199 205a1.495 1.495 0 0 1-1.33-2.2c2.88-5.46 5.48-17.19 6.46-29.17.032-.398.221-.767.525-1.025a1.502 1.502 0 0 1 2.121.169c.259.304.386.698.354 1.096-1 12.35-4.33 26.13-7.7 31.92-.3.54.11-.79-.43-.79zM327.079 165.92a1.5 1.5 0 0 1-1.46-1.54 59.624 59.624 0 0 0-.62-12.08 43.816 43.816 0 0 0-1.46-5.81c-.25-.79.77-.61 1.31-1.24.75-.87 1.31-.44 1.56.35a47.046 47.046 0 0 1 1.54 6.19c.642 4.191.859 8.436.65 12.67a1.496 1.496 0 0 1-1.52 1.46zM315.139 129.09a1.501 1.501 0 0 1-1.15-.54c-8.56-10.21-21-16.76-37.07-19.47a1.523 1.523 0 0 1-1.04-2.305 1.523 1.523 0 0 1 1.54-.695c16.76 2.82 29.84 9.72 38.87 20.5a1.5 1.5 0 0 1-1.15 2.46v.05zM221.829 135a1.502 1.502 0 0 1-1.39-2c1.16-2.79 12.26-27.25 43.85-27.87a1.5 1.5 0 1 1 .06 3c-29.69.58-40.06 23.42-41.14 26a1.5 1.5 0 0 1-1.38.87zM314.999 344.67c-.7 0-2 0-2.12-.75l-.12-.12c-3-14.83-14.22-25.83-33.09-30.16a100.243 100.243 0 0 0-46.44.61 1.497 1.497 0 0 1-1.568-.573 1.502 1.502 0 0 1 .858-2.347 103.196 103.196 0 0 1 47.82-.62c20.09 4.61 33.59 15.9 36.79 32v-.12c.16.81-1.81 1.21-2.62 1.38-.16-.03.49.7.49.7zM190.829 331a1.495 1.495 0 0 1-1.367-.874 1.5 1.5 0 0 1 .227-1.606 42.115 42.115 0 0 1 11.84-9.69c.72-.42.84.08 1.26.8.42.72 1 1.38.26 1.79-4.2 2.45-6.37 4.86-10.09 9.2-.3.38-1.71.38-2.13.38zM338.699 339.54c-.47 0-.89 0-1-.43 0-.12-.06-.3-.1-.55-1.77-10.43-9.05-36.1-38.92-46.27-14.52-4.94-29-7.44-43.5-6.37-.56 0-1.37.49-1.41-.06a1 1 0 0 1 .92-1.07c15.103-1.05 30.261.97 44.56 5.94 30.88 10.51 38.49 36.73 40.32 47.51 0 .22.07.39.09.49.11.54-.11.8-.65.91-.01 0-.24-.1-.31-.1zM169.289 329.17a.996.996 0 0 1-.993-1.045.998.998 0 0 1 .163-.505 90.388 90.388 0 0 1 41.45-34.71 1.004 1.004 0 0 1 1.31.53c.22.51-.25.38-.75.6-17 7.23-30.08 19-40.33 34.67a1.01 1.01 0 0 1-.365.34c-.149.08-.316.121-.485.12zM365.289 329.5a1.002 1.002 0 0 1-1-.82c0-.14-.06-.34-.1-.6-2-12-9.35-41.85-44.25-57.17-.51-.22-1.71-.6-1.48-1.1a1.01 1.01 0 0 1 .939-.596c.132.004.261.033.381.086 35.8 15.71 44.37 46.11 46.39 58.46 0 .24.07.43.09.56a.99.99 0 0 1-.156.751 1.001 1.001 0 0 1-.644.419l-.17.01zM298.699 266.22s.17-.18.13-.18a184.51 184.51 0 0 0-28.25-1.12c-5.81.15-11.51.47-16.94.95-.54.06-.39.35-.44-.2-.05-.55-.38-1.25.17-1.29 5.47-.48 11.21-.8 17.06-1 9.454-.294 18.916.147 28.3 1.32a1 1 0 0 1 .86 1.12c-.06.54-.39.4-.89.4zM151.999 319.5a1.008 1.008 0 0 1-.849-.477 1 1 0 0 1-.041-.973l.07-.14c5.82-11.82 21.82-33.54 62.23-46.08a1.001 1.001 0 0 1 1.25.66c.16.53-.81.51-1.33.67-39.72 12.31-54.65 34.1-60.41 45.64l-.07.14a.998.998 0 0 1-.85.56zM394.289 327.83h-.07a1.012 1.012 0 0 1-.687-.342 1.01 1.01 0 0 1-.243-.728c1.92-28.55-26.78-62.94-62.34-73.22-.53-.15-1.63-.39-1.48-.92a1.003 1.003 0 0 1 1.24-.68c36.38 10.53 66.55 45.56 64.57 75a.998.998 0 0 1-.99.89zM304.199 248.92h-.11c-4.38-.46-8.75-.86-13-1.18-.55 0-1.21.17-1.17-.38.021-.264.145-.508.345-.681.201-.172.462-.258.725-.239 4.25.32 8.64.71 13 1.18a.996.996 0 0 1 .855.711c.037.126.049.258.035.389.01.51-.17.2-.68.2zM129.619 320.17a1.001 1.001 0 0 1-1-1.27v-.12c7.69-27.23 28.38-47.78 61.69-61.06a.996.996 0 0 1 1.088.232.985.985 0 0 1 .212.328c.2.51-.77.69-1.28.89-32.66 13-52.27 33.56-59.71 60.15v.12a.997.997 0 0 1-1 .73z" fill="#000"/><path d="M422.409 344c-.09 0-.53-.36-.62-.37a2.784 2.784 0 0 1-1.83-2.33c2.5-17.37-6.12-51-22.07-68.12-15.95-17.12-35.48-27.5-60.51-34.15a1.497 1.497 0 0 1-1.101-1.251 1.493 1.493 0 0 1 .733-1.497 1.493 1.493 0 0 1 1.138-.152c25.56 6.87 45.41 17.87 62.05 34.87 17.38 17.81 27.07 55.78 23.5 74.38-.14.75-.58-1.38-1.29-1.38zM106.999 344.67c-.76 0-2.17-.23-2.25-1-.71-6.71-4-66.71 70.41-96 .77-.3 1.12.39 1.42 1.16.3.77.45 1.33-.33 1.63-72.34 28.43-68.45 86-67.77 92.5a1.5 1.5 0 0 1-1.33 1.65l-.15.06z" fill="#000"/><path d="M113.659 343.58a19.753 19.753 0 0 1 2.81-15.58c3-4.57 9.16-10.45 21.79-12.09 20.33-2.64 34.68 12 36.49 17.4.26.79.72 2.74-.07 3-.79.26-2-1.24-2.39-2-1.92-3.54-13.7-18.17-33.63-15.47-11.49 1.56-17 6.71-19.67 10.76-2.75 4.22-3.19 6-3 12.17 0 1.17.41 3.89-.42 4-.83.11-1.76-1.52-1.91-2.19z" fill="#000"/><path d="M141.359 407.22c-13.24 0-26.93-1.58-37-4.1a31.712 31.712 0 0 1-20.75-15.75 30.58 30.58 0 0 1-1.82-24.72c6.05-16.79 21.81-19.77 27.7-21 .81-.17 3.29-.23 3.46.58.17.81-2.54 1.5-3.33 1.75-5.87 1.88-19.52 4.47-25 19.67A27.57 27.57 0 0 0 86.26 386a28.76 28.76 0 0 0 18.81 14.25c18.35 4.59 46.89 5.62 64.14 1 .8-.21 3.41-.59 3.67.19.26.78-1.68 1.92-2.46 2.18-8.17 2.72-17.69 3.6-29.06 3.6z" fill="#000"/><path d="M205.149 406.18h-2c-36-.55-40.34-12.89-41-16.92-.13-.82 0-3 .83-3.12.83-.12 1.05 2 1.42 2.79 1.42 2.88 4.52 13.35 39 13.87 24.85.37 34.12-5.73 37.79-7.67.79-.42 3.32-1.69 3.75-1 .43.69-1.12 2.23-1.7 2.61-3.54 2.32-13.7 9.44-38.09 9.44zM205.579 339.29c-.47 0-.5-.17-.79-.58-6.52-9.18-18.07-8.23-26.54-5.58-.79.25-2.63.67-2.87-.12-.24-.79 2.5-2.13 3.29-2.37 9.42-2.94 20.58-4.36 28.14 6.3a1.5 1.5 0 0 1-1.22 2.37l-.01-.02zM250.489 361.42c-1.4-2.71-3.16-7.21-8.71-9.17-.78-.28-2-.09-1.71-.87.29-.78 1.93-2.23 2.71-2a16.647 16.647 0 0 1 10.33 11c.23.8.5 2.82-.21 3.25-.41.37-1.61-.63-2.41-2.21zM281.919 417.34c-14.28 0-22.31-4.35-26.43-7.78a31.594 31.594 0 0 1-10.64-21.63c-.61-9.08 2.85-18 10-25.79 17.92-19.52 46.51-7.28 46.81-7.15.76.33 2.74 1.78 2.42 2.54-.32.76-2.41.24-3.17-.08-.28-.12-27.35-11.26-43.85 6.72-6.58 7.17-9.77 15.31-9.21 23.56a27.176 27.176 0 0 0 2.992 10.475 27.166 27.166 0 0 0 6.868 8.455c5.85 4.87 20.46 12 51.75 3.92.8-.21 2.27-.46 2.5.33.23.79-2 1.86-2.75 2.08-11.49 3.26-19.69 4.35-27.29 4.35zM429.289 368c-.83 0-1.46-1.5-1.71-3s-3.06-30.47-34.18-36.86c-22.69-4.66-38.77 2.16-48.91 22.41-.27.55-2.29 3.83-3.29 3.54-.79-.23.28-3.4.51-3.9 10-22 28.1-30 52.29-25 33.29 6.84 35.11 32.61 36.16 39.14.12.72-.05 3.67-.87 3.67z" fill="#000"/><path d="M357.999 417.67h-1c-38.54-.24-51.21-11.16-55.53-14.83-.35-.3-2.15-2.42-1.65-3.08.5-.66 3.13 1.17 3.56 1.46 4.92 3.21 16.18 12.6 53.63 12.83 16.69.09 39.21-1.33 53.63-13 1.15-.93 2.63-1.5 3-1.11.37.39-1 2.19-1.8 2.81-14.84 12.37-36.7 14.92-53.84 14.92zM304.999 364.62c-1.21-.37-1.07-2.64-1-3.46 1.62-12.45 6.81-19.44 17.13-23 14.4-5 21 .54 21.75 1 .75.46 2.42 2.12 1.88 2.75-.54.63-2.25-.21-3.29-.67-.33-.15-6.21-4.58-18.59-.67-11.68 3.69-14.7 13-16.41 21-.09.72-.39 3.05-1.47 3.05z" fill="#000"/><path d="M419.729 413.46a71.306 71.306 0 0 1-14.44-1.25c-1.33-.25-2.71-1.18-2.58-2 .13-.82 2.76-.58 3.58-.5 25.42 2.46 39.69-1.88 45.79-14.54 2.78-5.76 2.27-12.08-1.42-18-4-6.34-10.1-10.41-17-10.41-.83 0-2.29-.3-2.29-1.13 0-.83 2.13-1.29 3-1.29 8 0 14.38 4 18.91 11.23 4.25 6.78 4.84 14.51 1.61 21.21-5.36 10.97-17.59 16.68-35.16 16.68zM274.339 148.11a23.48 23.48 0 0 1-10.47 3.27c-3.88.28-6-1.09-7.17-3.86a.943.943 0 0 1-.046-.76.927.927 0 0 1 .536-.54 1.122 1.122 0 0 1 1.52.37 4.707 4.707 0 0 0 5.15 3c5.49-.4 11.11-3.75 13-8.2a1.17 1.17 0 0 1 1.4-.7.993.993 0 0 1 .589.535 1.006 1.006 0 0 1 .011.795c-.86 2.06-1.71 4.32-4.52 6.09zM271.149 133.31a14.004 14.004 0 0 1-6.2 2.33 5.87 5.87 0 0 1-2.763-.274 5.87 5.87 0 0 1-2.327-1.516 1.063 1.063 0 0 1 .08-1.5c.45-.42 1.23-.53 1.53 0a3.145 3.145 0 0 0 3.25 1.56c3.42-.27 8.2-3.19 11.94-8.46a1.073 1.073 0 0 1 .721-.427 1.07 1.07 0 0 1 .809.217.989.989 0 0 1 .379.725 1.002 1.002 0 0 1-.289.765 31.48 31.48 0 0 1-7.13 6.58zM271.059 118.13a10.062 10.062 0 0 1-4.32 1.6 4.793 4.793 0 0 1-4.38-1.6 1.122 1.122 0 0 1 1.002-1.75c.282.02.545.145.738.35a3.213 3.213 0 0 0 2.61 1.21c2.15-.21 5.63-1.62 8.55-7 .149-.249.389-.431.669-.506.28-.075.579-.037.831.106a.995.995 0 0 1 .443.677.992.992 0 0 1-.203.783 20.557 20.557 0 0 1-5.94 6.13zM272.579 101.74a6.836 6.836 0 0 1-4 1.23 1.812 1.812 0 0 1-1.71-1.17 1.154 1.154 0 0 1 .73-1.37c.5-.19-.3 0 1.16.57s4.39-.6 5.72-3.89a1.066 1.066 0 0 1 1.111-.513c.143.026.279.082.399.163a.996.996 0 0 1 .443.677.992.992 0 0 1-.203.783 12.845 12.845 0 0 1-3.65 3.52z" fill="#000"/><path d="M268.619 164.5c-5.75.07-9.72-2.2-11.54-5-1.57-2.39-2.33-7.39-1.33-10.28.142-.349.353-.665.62-.93a3.007 3.007 0 0 1-.33-1.42c.13-3.68.58-9.24 1.85-12.21.161-.34.419-.625.74-.82a2.712 2.712 0 0 1-.29-1.3c.5-5.27.58-9.81 2.63-15.19a3.998 3.998 0 0 1 1-1.35 4.705 4.705 0 0 1-.17-1.82 59.314 59.314 0 0 1 3-12.1c.211-.398.481-.762.8-1.08a4.01 4.01 0 0 1-.07-2 98.65 98.65 0 0 1 3.35-12.26c1.98-5.74 3.51-6.65 4.12-6.74.3 0 2.65.88 3.92 14.72a5.107 5.107 0 0 1-.22 1.62c.215.19.375.436.46.71a43.5 43.5 0 0 1 1.35 11.54 5.25 5.25 0 0 1-.51 2.11c.237.212.405.491.48.8a53.196 53.196 0 0 1 1.1 12.58 4.697 4.697 0 0 1-.46 1.77c.266.187.485.434.64.72 1.15 2.17.74 10.21.61 13.15a7.285 7.285 0 0 1-.36 2c.225.275.407.582.54.91.83 2.06 1.74 9.31.63 14.09-.99 4.4-5.89 7.7-12.56 7.78zm-8-28.35c-1.12 2.73-1.43 6.72-1.56 10.19.021.641.226 1.263.59 1.79.36.31 1.14 1.41.89 1.76a5.087 5.087 0 0 1-.4.48c-.11.12-1-.42-1.65-.18-.65.24-.92 5.6 1.08 8.1 1.51 1.89 4.51 3.79 9.21 3.71 4.7-.08 8.84-2 10.17-6.5 1.15-3.95-.15-11.4-1.1-11.33-.54 0-1.77 1.32-2.06 1l-.25-1.1c-.33-.38.7-1.39.93-1.79a6.268 6.268 0 0 0 .82-2.65c.14-3.1.39-10.87.06-11.35-.33-.48-.94.52-1.27.12a2.559 2.559 0 0 1 0-2.19c.419-.649.6-1.423.51-2.19 0-4 .1-10.44-.56-10.33-.39.06-1.05 1.3-1.26.95a5.154 5.154 0 0 1 .23-3.14 9.24 9.24 0 0 0 .6-3.65c0-4 0-8-.62-7.72-.89.41-1.22.91-1.49.63-.45-.48.2-2 .63-2.91a6.994 6.994 0 0 0 0-3 35.239 35.239 0 0 0-1.63-9c-.89 1.39-3.12 7.25-4.25 13.56a1.918 1.918 0 0 0 .58 1.77 1.19 1.19 0 0 1 0 1.7c-.24.2-.88-.25-1.38.75-1.74 3.57-2 5.19-2.93 9.29-.14.59-.8 3.53.14 4.38.94.85-.22 1.15-.72 1.49a3.25 3.25 0 0 0-.85.82c-2 5.19-1.71 7.71-1.51 12.74 0 .12.42.77 1.81 1.53l-.17.86c-.51 0 .36.44-.12.61-.32.11-.73-.07-1.34-.07-.61 0-.86.43-1.13.87z" fill="#000"/></g><defs><filter id="filter0_d" x="0" y="0" width="536.95" height="497.67" filterUnits="userSpaceOnUse" color-interpolation-filters="sRGB"><feFlood flood-opacity="0" result="BackgroundImageFix"/><feColorMatrix in="SourceAlpha" values="0 0 0 0 0 0 0 0 0 0 0 0 0 0 0 0 0 0 127 0"/><feOffset/><feGaussianBlur stdDeviation="40"/><feColorMatrix values="0 0 0 0 1 0 0 0 0 1 0 0 0 0 1 0 0 0 0.45 0"/><feBlend in2="BackgroundImageFix" result="effect1_dropShadow"/><feBlend in="SourceGraphic" in2="effect1_dropShadow" result="shape"/></filter></defs></svg>
